<svg id="visual" viewBox="0 0 900 536" width="900" height="536" xmlns="http://www.w3.org/2000/svg" xmlns:xlink="http://www.w3.org/1999/xlink" version="1.1"><rect x="0" y="0" width="900" height="536" fill="#211f20"></rect><path d="M0 444L18.8 448.5C37.7 453 75.3 462 112.8 475C150.3 488 187.7 505 225.2 505.2C262.7 505.3 300.3 488.7 337.8 482.2C375.3 475.7 412.7 479.3 450.2 485.2C487.7 491 525.3 499 562.8 502.2C600.3 505.3 637.7 503.7 675.2 501C712.7 498.3 750.3 494.7 787.8 496.2C825.3 497.7 862.7 504.3 881.3 507.7L900 511L900 537L881.3 537C862.7 537 825.3 537 787.8 537C750.3 537 712.7 537 675.2 537C637.7 537 600.3 537 562.8 537C525.3 537 487.7 537 450.2 537C412.7 537 375.3 537 337.8 537C300.3 537 262.7 537 225.2 537C187.7 537 150.3 537 112.8 537C75.3 537 37.7 537 18.8 537L0 537Z" fill="#a6bbcc" stroke-linecap="round" stroke-linejoin="miter"></path></svg>