<svg id="visual" viewBox="0 0 900 536" width="900" height="536" xmlns="http://www.w3.org/2000/svg" xmlns:xlink="http://www.w3.org/1999/xlink" version="1.1"><rect x="0" y="0" width="900" height="536" fill="#a6bbcc"></rect><path d="M0 479L18.8 482.7C37.7 486.3 75.3 493.7 112.8 494.8C150.3 496 187.7 491 225.2 487.8C262.7 484.7 300.3 483.3 337.8 484.3C375.3 485.3 412.7 488.7 450.2 485.3C487.7 482 525.3 472 562.8 467C600.3 462 637.7 462 675.2 466.8C712.7 471.7 750.3 481.3 787.8 487.5C825.3 493.7 862.7 496.3 881.3 497.7L900 499L900 537L881.3 537C862.7 537 825.3 537 787.8 537C750.3 537 712.7 537 675.2 537C637.7 537 600.3 537 562.8 537C525.3 537 487.7 537 450.2 537C412.7 537 375.3 537 337.8 537C300.3 537 262.7 537 225.2 537C187.7 537 150.3 537 112.8 537C75.3 537 37.7 537 18.8 537L0 537Z" fill="#211f20" stroke-linecap="round" stroke-linejoin="miter"></path></svg>