<svg id="visual" viewBox="0 0 900 536" width="900" height="536" xmlns="http://www.w3.org/2000/svg" xmlns:xlink="http://www.w3.org/1999/xlink" version="1.1"><rect x="0" y="0" width="900" height="536" fill="#8798a1"></rect><path d="M0 504L18.8 503.8C37.7 503.7 75.3 503.3 112.8 503.8C150.3 504.3 187.7 505.7 225.2 507.3C262.7 509 300.3 511 337.8 511.8C375.3 512.7 412.7 512.3 450.2 511C487.7 509.7 525.3 507.3 562.8 506.7C600.3 506 637.7 507 675.2 506.8C712.7 506.7 750.3 505.3 787.8 505.5C825.3 505.7 862.7 507.3 881.3 508.2L900 509L900 537L881.3 537C862.7 537 825.3 537 787.8 537C750.3 537 712.7 537 675.2 537C637.7 537 600.3 537 562.8 537C525.3 537 487.7 537 450.2 537C412.7 537 375.3 537 337.8 537C300.3 537 262.7 537 225.2 537C187.7 537 150.3 537 112.8 537C75.3 537 37.7 537 18.8 537L0 537Z" fill="#211f20" stroke-linecap="round" stroke-linejoin="miter"></path></svg>