<svg id="visual" viewBox="0 0 900 536" width="900" height="536" xmlns="http://www.w3.org/2000/svg" xmlns:xlink="http://www.w3.org/1999/xlink" version="1.1"><rect x="0" y="0" width="900" height="536" fill="#f1c453"></rect><path d="M0 483L18.8 488.2C37.7 493.3 75.3 503.7 112.8 507.8C150.3 512 187.7 510 225.2 507.2C262.7 504.3 300.3 500.7 337.8 500.5C375.3 500.3 412.7 503.7 450.2 505.2C487.7 506.7 525.3 506.3 562.8 508.5C600.3 510.7 637.7 515.3 675.2 513.8C712.7 512.3 750.3 504.7 787.8 507.2C825.3 509.7 862.7 522.3 881.3 528.7L900 535L900 537L881.3 537C862.7 537 825.3 537 787.8 537C750.3 537 712.7 537 675.2 537C637.7 537 600.3 537 562.8 537C525.3 537 487.7 537 450.2 537C412.7 537 375.3 537 337.8 537C300.3 537 262.7 537 225.2 537C187.7 537 150.3 537 112.8 537C75.3 537 37.7 537 18.8 537L0 537Z" fill="#f4f4f4" stroke-linecap="round" stroke-linejoin="miter"></path></svg>