<svg id="visual" viewBox="0 0 900 536" width="900" height="536" xmlns="http://www.w3.org/2000/svg" xmlns:xlink="http://www.w3.org/1999/xlink" version="1.1"><rect x="0" y="0" width="900" height="536" fill="#f4f4f4"></rect><path d="M0 518L18.8 518.3C37.7 518.7 75.3 519.3 112.8 516.5C150.3 513.7 187.7 507.3 225.2 504.8C262.7 502.3 300.3 503.7 337.8 506.3C375.3 509 412.7 513 450.2 513C487.7 513 525.3 509 562.8 509.5C600.3 510 637.7 515 675.2 516.3C712.7 517.7 750.3 515.3 787.8 511.2C825.3 507 862.7 501 881.3 498L900 495L900 537L881.3 537C862.7 537 825.3 537 787.8 537C750.3 537 712.7 537 675.2 537C637.7 537 600.3 537 562.8 537C525.3 537 487.7 537 450.2 537C412.7 537 375.3 537 337.8 537C300.3 537 262.7 537 225.2 537C187.7 537 150.3 537 112.8 537C75.3 537 37.7 537 18.8 537L0 537Z" fill="#8798a1" stroke-linecap="round" stroke-linejoin="miter"></path></svg>