<svg id="visual" viewBox="0 0 900 536" width="900" height="536" xmlns="http://www.w3.org/2000/svg" xmlns:xlink="http://www.w3.org/1999/xlink" version="1.1"><rect x="0" y="0" width="900" height="536" fill="#211f20"></rect><path d="M0 526L18.8 521.5C37.7 517 75.3 508 112.8 502.5C150.3 497 187.7 495 225.2 495.3C262.7 495.7 300.3 498.3 337.8 500.2C375.3 502 412.7 503 450.2 504.8C487.7 506.7 525.3 509.3 562.8 508.8C600.3 508.3 637.7 504.7 675.2 503.5C712.7 502.3 750.3 503.7 787.8 502.8C825.3 502 862.7 499 881.3 497.5L900 496L900 537L881.3 537C862.7 537 825.3 537 787.8 537C750.3 537 712.7 537 675.2 537C637.7 537 600.3 537 562.8 537C525.3 537 487.7 537 450.2 537C412.7 537 375.3 537 337.8 537C300.3 537 262.7 537 225.2 537C187.7 537 150.3 537 112.8 537C75.3 537 37.7 537 18.8 537L0 537Z" fill="#f1c453" stroke-linecap="round" stroke-linejoin="miter"></path></svg>